M48
; DRILL file {KiCad (7.0.0)} date Mon Jan 22 14:48:19 2024
; FORMAT={-:-/ absolute / metric / decimal}
; #@! TF.CreationDate,2024-01-22T14:48:19-03:00
; #@! TF.GenerationSoftware,Kicad,Pcbnew,(7.0.0)
; #@! TF.FileFunction,Plated,1,2,PTH
FMAT,2
METRIC
; #@! TA.AperFunction,Plated,PTH,ViaDrill
T1C0.400
; #@! TA.AperFunction,Plated,PTH,ComponentDrill
T2C0.800
; #@! TA.AperFunction,Plated,PTH,ComponentDrill
T3C1.000
; #@! TA.AperFunction,Plated,PTH,ComponentDrill
T4C1.100
%
G90
G05
T1
X89.281Y-100.882
X89.3Y-90.57
X89.502Y-88.948
X94.615Y-43.815
X94.934Y-56.453
X96.245Y-64.742
X96.774Y-69.825
X97.536Y-92.456
X98.044Y-86.106
X98.806Y-66.04
X98.806Y-73.406
X100.584Y-55.372
X102.108Y-56.642
X106.299Y-43.942
X106.299Y-52.578
X106.68Y-99.721
X107.696Y-51.816
X108.585Y-40.894
X111.633Y-50.17
X111.76Y-52.197
X112.014Y-91.821
X112.649Y-99.441
X113.03Y-103.632
X115.113Y-56.439
X115.189Y-62.103
X116.332Y-46.101
X117.094Y-75.946
X117.958Y-56.439
X118.233Y-55.368
X118.872Y-78.74
X119.193Y-73.6
X119.507Y-52.07
X119.634Y-54.991
X119.634Y-72.263
X119.638Y-105.406
X119.888Y-49.149
X119.888Y-62.23
X122.301Y-42.926
X130.81Y-102.87
X131.445Y-75.38
X131.572Y-65.786
X132.483Y-56.493
X132.842Y-50.038
X134.747Y-44.069
X135.382Y-104.267
X136.398Y-41.402
X138.811Y-44.958
X140.462Y-61.087
X140.716Y-104.14
X141.224Y-102.108
X141.427Y-62.636
X142.037Y-66.142
X142.621Y-54.356
X143.256Y-45.212
X144.78Y-100.076
X146.558Y-106.553
X146.812Y-59.944
X146.838Y-45.587
X147.701Y-58.674
X147.736Y-45.149
X148.082Y-66.675
X148.734Y-45.09
X148.844Y-59.69
X149.733Y-45.085
X149.86Y-58.42
X153.797Y-105.156
X154.305Y-42.171
X160.401Y-47.117
X161.163Y-49.911
X163.957Y-60.198
X174.625Y-69.215
T2
X135.0Y-47.44
X135.0Y-49.98
X135.0Y-52.52
X135.0Y-55.06
X135.0Y-57.6
X135.0Y-60.14
X135.0Y-62.68
X135.0Y-65.22
X135.0Y-67.76
X135.0Y-70.3
X135.0Y-72.84
X135.0Y-75.38
X135.0Y-77.92
X135.0Y-80.46
X135.0Y-83.0
X135.0Y-85.54
X157.86Y-47.44
X157.86Y-49.98
X157.86Y-52.52
X157.86Y-55.06
X157.86Y-57.6
X157.86Y-60.14
X157.86Y-62.68
X157.86Y-65.22
X157.86Y-67.76
X157.86Y-70.3
X157.86Y-72.84
X157.86Y-75.38
X157.86Y-77.92
X157.86Y-80.46
X157.86Y-83.0
X157.86Y-85.54
T3
X96.012Y-108.077
X98.552Y-108.077
X98.806Y-42.037
X101.092Y-108.077
X101.346Y-42.037
X103.632Y-108.077
X103.886Y-42.037
X106.426Y-42.037
X111.952Y-42.0
X114.492Y-42.0
X117.032Y-42.0
X117.475Y-108.077
X119.572Y-42.0
X120.015Y-108.077
X122.555Y-108.077
X123.46Y-50.74
X123.46Y-53.28
X123.46Y-55.82
X123.46Y-58.36
X123.46Y-60.9
X123.46Y-63.44
X123.46Y-65.98
X123.46Y-68.52
X123.46Y-71.06
X123.46Y-73.6
X123.46Y-76.14
X123.46Y-78.68
X123.46Y-81.22
X123.46Y-83.76
X123.46Y-86.3
X123.46Y-88.84
X123.46Y-91.38
X123.46Y-93.92
X123.46Y-96.46
X123.46Y-99.0
X124.692Y-42.0
X125.095Y-108.077
X126.0Y-50.74
X126.0Y-53.28
X126.0Y-55.82
X126.0Y-58.36
X126.0Y-60.9
X126.0Y-63.44
X126.0Y-65.98
X126.0Y-68.52
X126.0Y-71.06
X126.0Y-73.6
X126.0Y-76.14
X126.0Y-78.68
X126.0Y-81.22
X126.0Y-83.76
X126.0Y-86.3
X126.0Y-88.84
X126.0Y-91.38
X126.0Y-93.92
X126.0Y-96.46
X126.0Y-99.0
X127.232Y-42.0
X129.772Y-42.0
X132.312Y-42.0
X162.042Y-42.037
X164.582Y-42.037
X166.46Y-50.9
X166.46Y-53.44
X166.46Y-55.98
X166.46Y-58.52
X166.46Y-61.06
X166.46Y-63.6
X166.46Y-66.14
X166.46Y-68.68
X166.46Y-71.22
X166.46Y-73.76
X166.46Y-76.3
X166.46Y-78.84
X166.46Y-81.38
X166.46Y-83.92
X166.46Y-86.46
X166.46Y-89.0
X166.46Y-91.54
X166.46Y-94.08
X166.46Y-96.62
X166.46Y-99.16
X167.122Y-42.037
X169.0Y-50.9
X169.0Y-53.44
X169.0Y-55.98
X169.0Y-58.52
X169.0Y-61.06
X169.0Y-63.6
X169.0Y-66.14
X169.0Y-68.68
X169.0Y-71.22
X169.0Y-73.76
X169.0Y-76.3
X169.0Y-78.84
X169.0Y-81.38
X169.0Y-83.92
X169.0Y-86.46
X169.0Y-89.0
X169.0Y-91.54
X169.0Y-94.08
X169.0Y-96.62
X169.0Y-99.16
X169.662Y-42.037
T4
X88.242Y-94.56
X88.242Y-99.06
X88.444Y-79.32
X88.444Y-83.82
X94.742Y-94.56
X94.742Y-99.06
X94.944Y-79.32
X94.944Y-83.82
T0
M30
